<svg width="144" height="32" viewBox="0 0 144 32" fill="none" xmlns="http://www.w3.org/2000/svg">
<g clip-path="url(#clip0_25308_40)">
<path d="M32 6.078C30.81 6.6 29.542 6.946 28.22 7.114C29.58 6.302 30.618 5.026 31.106 3.488C29.838 4.244 28.438 4.778 26.946 5.076C25.742 3.794 24.026 3 22.154 3C18.522 3 15.598 5.948 15.598 9.562C15.598 10.082 15.642 10.582 15.75 11.058C10.296 10.792 5.47 8.178 2.228 4.196C1.662 5.178 1.33 6.302 1.33 7.512C1.33 9.784 2.5 11.798 4.244 12.964C3.19 12.944 2.156 12.638 1.28 12.156C1.28 12.176 1.28 12.202 1.28 12.228C1.28 15.416 3.554 18.064 6.536 18.674C6.002 18.82 5.42 18.89 4.816 18.89C4.396 18.89 3.972 18.866 3.574 18.778C4.424 21.376 6.836 23.286 9.704 23.348C7.472 25.094 4.638 26.146 1.57 26.146C1.032 26.146 0.516 26.122 0 26.056C2.906 27.93 6.35 29 10.064 29C22.136 29 28.736 19 28.736 10.332C28.736 10.042 28.726 9.762 28.712 9.484C30.014 8.56 31.108 7.406 32 6.078Z" fill="white"/>
</g>
<g clip-path="url(#clip1_25308_40)">
<path d="M133.33 5.31333H136.251V0.225333C135.747 0.156 134.014 0 131.995 0C127.783 0 124.898 2.64933 124.898 7.51867V12H120.25V17.688H124.898V32H130.596V17.6893H135.056L135.764 12.0013H130.595V8.08267C130.596 6.43867 131.039 5.31333 133.33 5.31333V5.31333Z" fill="white"/>
</g>
<g clip-path="url(#clip2_25308_40)">
<path d="M79.1688 0H64.8306C59.9614 0 56 3.9616 56 8.83079V23.169C56 28.0384 59.9614 31.9998 64.8306 31.9998H79.1688C84.0384 31.9998 87.9998 28.0382 87.9998 23.169V8.83079C88 3.9616 84.0384 0 79.1688 0ZM85.1608 23.169C85.1608 26.4729 82.4729 29.1606 79.169 29.1606H64.8306C61.5269 29.1608 58.8392 26.4729 58.8392 23.169V8.83079C58.8392 5.52712 61.5269 2.83918 64.8306 2.83918H79.1688C82.4727 2.83918 85.1606 5.52712 85.1606 8.83079V23.169H85.1608Z" fill="white"/>
<path d="M71.9999 7.75482C67.4533 7.75482 63.7544 11.4537 63.7544 16.0004C63.7544 20.5468 67.4533 24.2455 71.9999 24.2455C76.5466 24.2455 80.2455 20.5468 80.2455 16.0004C80.2455 11.4537 76.5466 7.75482 71.9999 7.75482ZM71.9999 21.4062C69.019 21.4062 66.5936 18.9811 66.5936 16.0002C66.5936 13.019 69.0188 10.5938 71.9999 10.5938C74.9811 10.5938 77.4063 13.019 77.4063 16.0002C77.4063 18.9811 74.9809 21.4062 71.9999 21.4062Z" fill="white"/>
<path d="M80.5913 5.34735C80.0443 5.34735 79.507 5.56881 79.1206 5.95683C78.7324 6.34296 78.5093 6.88051 78.5093 7.42942C78.5093 7.97662 78.7326 8.51398 79.1206 8.902C79.5068 9.28813 80.0443 9.51148 80.5913 9.51148C81.1402 9.51148 81.6759 9.28813 82.0639 8.902C82.4519 8.51398 82.6734 7.97643 82.6734 7.42942C82.6734 6.88051 82.4519 6.34296 82.0639 5.95683C81.6778 5.56881 81.1402 5.34735 80.5913 5.34735Z" fill="white"/>
</g>
<defs>
<clipPath id="clip0_25308_40">
<rect width="32" height="32" fill="white"/>
</clipPath>
<clipPath id="clip1_25308_40">
<rect width="32" height="32" fill="white" transform="translate(112)"/>
</clipPath>
<clipPath id="clip2_25308_40">
<rect width="32" height="32" fill="white" transform="translate(56)"/>
</clipPath>
</defs>
</svg>
